Coordinates
version=1
nRows=8
nColumns=40
inDegrees=yes

Units are S.I. units (second, meters, Newtons, ...)
Angles are in degrees.

endheader
time	pelvis_tilt	pelvis_list	pelvis_rotation	pelvis_tx	pelvis_ty	pelvis_tz	hip_flexion_r	hip_adduction_r	hip_rotation_r	knee_angle_r	knee_angle_r_beta	ankle_angle_r	subtalar_angle_r	mtp_angle_r	hip_flexion_l	hip_adduction_l	hip_rotation_l	knee_angle_l	knee_angle_l_beta	ankle_angle_l	subtalar_angle_l	mtp_angle_l	lumbar_extension	lumbar_bending	lumbar_rotation	arm_flex_r	arm_add_r	arm_rot_r	elbow_flex_r	pro_sup_r	wrist_flex_r	wrist_dev_r	arm_flex_l	arm_add_l	arm_rot_l	elbow_flex_l	pro_sup_l	wrist_flex_l	wrist_dev_l
     39.11000000	     -5.01583403	     -3.91058875	      0.40246586	      0.90563931	      0.92718444	      0.42680154	     27.92299959	     -7.22616045	     -8.08009502	     67.57268631	     67.57268631	      0.36453735	    -18.81950265	      8.63819526	     19.34022911	     -3.27106152	     -4.81469517	     25.19150606	     25.19150606	     13.38322299	    -13.56540694	      4.31382554	    -10.01267622	      5.48232809	      1.90417327	     14.63820437	    -12.79354036	     -6.17267852	     55.39161045	     44.55797130	      0.00000000	      0.00000000	     -0.00094164	    -14.85136843	     -2.09406634	     63.34625784	     45.50397479	      0.00000000	      0.00000000
     39.12371429	     -5.08539723	     -4.12195994	      0.06537222	      0.90429939	      0.92821263	      0.42650421	     29.24632642	     -6.69481390	     -7.92471847	     66.41625796	     66.41625796	      0.42007170	    -18.59629684	      8.24371379	     18.61066105	     -3.54116451	     -5.14153886	     24.57923135	     24.57923135	     13.57869800	    -13.27925425	      4.17145081	    -10.20171108	      5.76004564	      2.26655872	     12.77961917	    -13.26358453	     -5.92909388	     53.36655011	     44.62582110	      0.00000000	      0.00000000	      1.19757815	    -14.89246575	     -2.25553921	     64.53335754	     45.56350812	      0.00000000	      0.00000000
     39.13742857	     -5.12287029	     -4.30521370	     -0.27272644	      0.90301050	      0.92924385	      0.42623351	     30.39064826	     -6.17256849	     -7.78223078	     64.98486710	     64.98486710	      0.38373448	    -18.34294528	      7.66788370	     17.82543262	     -3.78263798	     -5.53981211	     23.93016848	     23.93016848	     13.74592038	    -12.93739031	      3.97997395	    -10.41010892	      5.99912237	      2.62363104	     11.17671076	    -13.64125778	     -5.65504809	     50.76102887	     44.71514863	      0.00000000	      0.00000000	      2.38887910	    -15.01852266	     -2.26169885	     65.84487439	     45.61412109	      0.00000000	      0.00000000
     39.15114286	     -5.15816488	     -4.44775745	     -0.61250557	      0.90171839	      0.93009393	      0.42606922	     31.36329882	     -5.73871857	     -7.72256806	     63.20872780	     63.20872780	     -0.26609665	    -18.15961058	      5.29898612	     17.08460947	     -4.00442488	     -6.00779569	     23.35741202	     23.35741202	     13.71156803	    -12.59946902	      3.13213152	    -10.54258030	      6.13995219	      2.08037310	     11.44540909	    -13.31225530	     -4.96936916	     44.45366910	     44.96984642	      0.00000000	      0.00000000	      2.94054369	    -15.94035996	     -1.61191908	     67.46889992	     45.69783262	      0.00000000	      0.00000000
     39.16485714	     -5.22648799	     -4.60352426	     -0.92334505	      0.90054453	      0.93089784	      0.42599090	     32.25366789	     -5.24831444	     -7.67930710	     61.19350254	     61.19350254	     -0.14726597	    -17.76505186	      5.17656706	     16.32242868	     -4.17413626	     -6.26905251	     22.66756063	     22.66756063	     13.90349124	    -12.43051209	      3.13395267	    -10.72476961	      6.32979931	      2.19621384	      9.80677632	    -13.53309118	     -4.79356049	     42.96120638	     45.01576792	      0.00000000	      0.00000000	      3.98838938	    -16.05108040	     -2.02795318	     68.47425723	     45.76456212	      0.00000000	      0.00000000
     39.17857143	     -5.17169995	     -4.63551057	     -1.32992533	      0.89952444	      0.93167649	      0.42597409	     32.88571573	     -4.83421411	     -7.45245269	     58.84672193	     58.84672193	     -0.16444867	    -17.25643884	      4.52539800	     15.43963707	     -4.24809473	     -6.74652834	     22.04974504	     22.04974504	     14.08330819	    -12.15320012	      2.91073614	    -10.99246142	      6.39758993	      2.71449879	      8.50518763	    -13.80862806	     -4.41366214	     40.07211025	     45.11524924	      0.00000000	      0.00000000	      5.28514266	    -16.07541899	     -2.31102867	     69.93811883	     45.84684058	      0.00000000	      0.00000000
     39.19228571	     -5.25104197	     -4.69284622	     -1.64640359	      0.89847204	      0.93213952	      0.42603975	     33.39656279	     -4.50565051	     -7.52744924	     55.93826679	     55.93826679	     -0.82118015	    -16.89409343	      1.91141315	     14.72920668	     -4.33227110	     -7.14069403	     21.42353253	     21.42353253	     14.04293996	    -11.94361674	      2.17195153	    -11.02504446	      6.49089402	      2.03078734	      8.95380980	    -13.43781119	     -3.53927626	     34.42990795	     45.34416773	      0.00000000	      0.00000000	      5.67978723	    -16.76229915	     -2.55071349	     71.31167826	     46.00571626	      0.00000000	      0.00000000
     39.20600000	     -5.44861480	     -4.70506781	     -1.95907772	      0.89737597	      0.93225043	      0.42629110	     33.99929161	     -4.18506688	     -7.55747419	     52.90099301	     52.90099301	     -0.50590320	    -16.03261506	      1.96861553	     14.23001764	     -4.36208807	     -7.41144618	     20.94393381	     20.94393381	     14.25314881	    -11.84054404	      2.14730494	    -10.98230189	      6.55310400	      1.85736367	      7.41955069	    -13.38406470	     -3.43242731	     33.60358284	     45.36369238	      0.00000000	      0.00000000	      6.60785861	    -17.19025275	     -2.98590876	     72.02304010	     46.06028941	      0.00000000	      0.00000000
